<svg width="450" height="250" viewBox="130 -40 65 114" fill="none" xmlns="http://www.w3.org/2000/svg">
    <rect x="0" y="-40" width="450" height="250" fill="#222"/>
    <g transform="translate(88.5, 12) translate(-20, -12)">
        <path d="M47.5828 18.8235V15.7647L61.3524 15.7882C62.0549 15.7882 62.5897 15.6314 62.9569 15.3176C63.34 14.9882 63.5316 14.4627 63.5316 13.7412C63.5316 13.0196 63.34 12.502 62.9569 12.1882C62.5897 11.8588 62.0549 11.6941 61.3524 11.6941H52.7794C51.0073 11.6941 49.6263 11.2784 48.6365 10.4471C47.6627 9.6 47.1757 8.36078 47.1757 6.72941C47.1757 5.09804 47.6627 3.86667 48.6365 3.03529C49.6263 2.18823 51.0073 1.76471 52.7794 1.76471H66.2376V4.82353L53.1865 4.8C52.5 4.8 51.9652 4.95686 51.582 5.27059C51.1989 5.56863 51.0073 6.0549 51.0073 6.72941C51.0073 7.40392 51.1989 7.89804 51.582 8.21176C51.9652 8.5098 52.5 8.65882 53.1865 8.65882H61.7595C63.5316 8.65882 64.9046 9.0902 65.8784 9.95294C66.8682 10.8 67.3631 12.0627 67.3631 13.7412C67.3631 15.4039 66.8682 16.6667 65.8784 17.5294C64.9046 18.3922 63.5316 18.8235 61.7595 18.8235H47.5828Z"
              fill="#FEFEFE"/>
        <path d="M69.4063 24V6.58823H78.2667C80.406 6.58823 82.0743 7.10588 83.2717 8.14118C84.469 9.17647 85.0677 10.6745 85.0677 12.6353C85.0677 14.6118 84.469 16.1176 83.2717 17.1529C82.0743 18.1882 80.406 18.7059 78.2667 18.7059H72.8786V24H69.4063ZM78.2667 9.29412H72.8786V16H78.2667C79.3044 16 80.0947 15.7255 80.6375 15.1765C81.1962 14.6118 81.4756 13.7647 81.4756 12.6353C81.4756 11.5216 81.1962 10.6902 80.6375 10.1412C80.0947 9.57647 79.3044 9.29412 78.2667 9.29412Z"
              fill="#FEFEFE"/>
        <path d="M90.507 18.7059C89.2139 18.7059 88.2241 18.3843 87.5376 17.7412C86.8511 17.098 86.5079 16.1804 86.5079 14.9882C86.5079 13.8118 86.8511 12.902 87.5376 12.2588C88.2241 11.6157 89.2139 11.2941 90.507 11.2941H99.7027V10.7294C99.7027 9.77255 99.2238 9.29412 98.2659 9.29412H88.1123V6.58823H99.1759C100.629 6.58823 101.658 6.91765 102.265 7.57647C102.872 8.21961 103.175 9.12941 103.175 10.3059V18.7059H90.507ZM91.1297 16H99.7027V14H91.1297C90.8263 14 90.5869 14.0941 90.4113 14.2824C90.2516 14.4549 90.1718 14.6902 90.1718 14.9882C90.1718 15.2863 90.2516 15.5294 90.4113 15.7176C90.5869 15.9059 90.8263 16 91.1297 16Z"
              fill="#FEFEFE"/>
        <path d="M112.14 18.8235C110.001 18.8235 108.332 18.3059 107.135 17.2706C105.938 16.2196 105.339 14.6824 105.339 12.6588C105.339 10.6196 105.938 9.08235 107.135 8.04706C108.332 6.99608 110.001 6.47059 112.14 6.47059H120.162V9.17647H112.14C111.102 9.17647 110.304 9.45882 109.745 10.0235C109.203 10.5882 108.931 11.4667 108.931 12.6588C108.931 13.8353 109.203 14.7059 109.745 15.2706C110.304 15.8353 111.102 16.1176 112.14 16.1176H120.402V18.8235H112.14Z"
              fill="#FEFEFE"/>
        <path d="M128.51 18.8235C126.371 18.8235 124.703 18.3059 123.505 17.2706C122.308 16.2196 121.709 14.6824 121.709 12.6588C121.709 10.6196 122.308 9.08235 123.505 8.04706C124.703 6.99608 126.371 6.47059 128.51 6.47059H134.497C135.902 6.47059 136.971 6.8 137.706 7.45882C138.456 8.10196 138.831 9.02745 138.831 10.2353C138.831 12.698 137.387 13.9294 134.497 13.9294H125.445C125.78 15.3882 126.802 16.1176 128.51 16.1176H138.209V18.8235H128.51ZM128.51 9.17647C126.866 9.17647 125.852 9.85882 125.469 11.2235H134.329C134.649 11.2235 134.896 11.1294 135.072 10.9412C135.263 10.7529 135.359 10.4941 135.359 10.1647C135.359 9.50588 135.016 9.17647 134.329 9.17647H128.51Z"
              fill="#FEFEFE"/>
        <path d="M139.913 18.7059L147.624 1.88235H153.539L161.25 18.7059H157.083L155.454 15.1529H145.708L144.079 18.7059H139.913ZM147.097 12.0941H154.065L150.737 4.82353H150.425L147.097 12.0941Z"
              fill="#FEFEFE"/>
        <path d="M163.168 18.7059V1.88235H167V18.7059H163.168Z" fill="#FEFEFE"/>
        <path d="M20.0025 0L25.4049 7.98607L40.0049 10.9412L25.4049 13.8963L20.0025 21.8824L14.6 13.8963L0 10.9412L14.6 7.98607L20.0025 0Z"
              fill="#FEFEFE"/>
    </g>
</svg>
